{
	"asset":{
		"generator":"Khronos glTF Blender I/O v4.4.56",
		"version":"2.0"
	},
	"scene":0,
	"scenes":[
		{
			"name":"Scene",
			"nodes":[
				2
			]
		}
	],
	"nodes":[
		{
			"mesh":0,
			"name":"wheels-back.001",
			"translation":[
				0,
				0.35949936509132385,
				-0.550000011920929
			]
		},
		{
			"mesh":1,
			"name":"wheels-front.001",
			"translation":[
				0,
				0.35949936509132385,
				0.550000011920929
			]
		},
		{
			"children":[
				0,
				1
			],
			"mesh":2,
			"name":"train-electric-bullet-b"
		}
	],
	"materials":[
		{
			"doubleSided":true,
			"name":"colormap.001",
			"pbrMetallicRoughness":{
				"baseColorTexture":{
					"index":0
				},
				"metallicFactor":0
			}
		}
	],
	"meshes":[
		{
			"name":"wheels-back.001",
			"primitives":[
				{
					"attributes":{
						"POSITION":0,
						"NORMAL":1,
						"TEXCOORD_0":2
					},
					"indices":3,
					"material":0
				}
			]
		},
		{
			"name":"wheels-front.001",
			"primitives":[
				{
					"attributes":{
						"POSITION":4,
						"NORMAL":5,
						"TEXCOORD_0":6
					},
					"indices":3,
					"material":0
				}
			]
		},
		{
			"name":"train-electric-bullet-b.001",
			"primitives":[
				{
					"attributes":{
						"POSITION":7,
						"NORMAL":8,
						"TEXCOORD_0":9
					},
					"indices":10,
					"material":0
				}
			]
		}
	],
	"textures":[
		{
			"sampler":0,
			"source":0
		}
	],
	"images":[
		{
			"mimeType":"image/png",
			"name":"colormap",
			"uri":"Textures/colormap.png"
		}
	],
	"accessors":[
		{
			"bufferView":0,
			"componentType":5126,
			"count":532,
			"max":[
				0.49149996042251587,
				0,
				0.3805958032608032
			],
			"min":[
				-0.49149996042251587,
				-0.35949936509132385,
				-0.3805958032608032
			],
			"type":"VEC3"
		},
		{
			"bufferView":1,
			"componentType":5126,
			"count":532,
			"type":"VEC3"
		},
		{
			"bufferView":2,
			"componentType":5126,
			"count":532,
			"type":"VEC2"
		},
		{
			"bufferView":3,
			"componentType":5123,
			"count":948,
			"type":"SCALAR"
		},
		{
			"bufferView":4,
			"componentType":5126,
			"count":532,
			"max":[
				0.49149996042251587,
				0,
				0.3805958032608032
			],
			"min":[
				-0.49149996042251587,
				-0.35949936509132385,
				-0.3805958032608032
			],
			"type":"VEC3"
		},
		{
			"bufferView":5,
			"componentType":5126,
			"count":532,
			"type":"VEC3"
		},
		{
			"bufferView":6,
			"componentType":5126,
			"count":532,
			"type":"VEC2"
		},
		{
			"bufferView":7,
			"componentType":5126,
			"count":1292,
			"max":[
				0.6500000357627869,
				1.6374210119247437,
				1.3000000715255737
			],
			"min":[
				-0.6500000357627869,
				0.1594993621110916,
				-1.2999999523162842
			],
			"type":"VEC3"
		},
		{
			"bufferView":8,
			"componentType":5126,
			"count":1292,
			"type":"VEC3"
		},
		{
			"bufferView":9,
			"componentType":5126,
			"count":1292,
			"type":"VEC2"
		},
		{
			"bufferView":10,
			"componentType":5123,
			"count":2286,
			"type":"SCALAR"
		}
	],
	"bufferViews":[
		{
			"buffer":0,
			"byteLength":6384,
			"byteOffset":0,
			"target":34962
		},
		{
			"buffer":0,
			"byteLength":6384,
			"byteOffset":6384,
			"target":34962
		},
		{
			"buffer":0,
			"byteLength":4256,
			"byteOffset":12768,
			"target":34962
		},
		{
			"buffer":0,
			"byteLength":1896,
			"byteOffset":17024,
			"target":34963
		},
		{
			"buffer":0,
			"byteLength":6384,
			"byteOffset":18920,
			"target":34962
		},
		{
			"buffer":0,
			"byteLength":6384,
			"byteOffset":25304,
			"target":34962
		},
		{
			"buffer":0,
			"byteLength":4256,
			"byteOffset":31688,
			"target":34962
		},
		{
			"buffer":0,
			"byteLength":15504,
			"byteOffset":35944,
			"target":34962
		},
		{
			"buffer":0,
			"byteLength":15504,
			"byteOffset":51448,
			"target":34962
		},
		{
			"buffer":0,
			"byteLength":10336,
			"byteOffset":66952,
			"target":34962
		},
		{
			"buffer":0,
			"byteLength":4572,
			"byteOffset":77288,
			"target":34963
		}
	],
	"samplers":[
		{
			"magFilter":9728,
			"minFilter":9984
		}
	],
	"buffers":[
		{
			"byteLength":81860,
			"uri":"train-electric-bullet-b-red.bin"
		}
	]
}
