{
	"asset":{
		"generator":"Khronos glTF Blender I/O v4.4.56",
		"version":"2.0"
	},
	"scene":0,
	"scenes":[
		{
			"name":"Scene",
			"nodes":[
				2
			]
		}
	],
	"nodes":[
		{
			"mesh":0,
			"name":"wheels-back",
			"translation":[
				0,
				0.35949936509132385,
				-0.6000000238418579
			]
		},
		{
			"mesh":1,
			"name":"wheels-front",
			"translation":[
				0,
				0.35949936509132385,
				0.20000000298023224
			]
		},
		{
			"children":[
				0,
				1
			],
			"mesh":2,
			"name":"train-electric-double-a"
		}
	],
	"materials":[
		{
			"doubleSided":true,
			"name":"colormap.001",
			"pbrMetallicRoughness":{
				"baseColorTexture":{
					"index":0
				},
				"metallicFactor":0
			}
		}
	],
	"meshes":[
		{
			"name":"wheels-back.001",
			"primitives":[
				{
					"attributes":{
						"POSITION":0,
						"NORMAL":1,
						"TEXCOORD_0":2
					},
					"indices":3,
					"material":0
				}
			]
		},
		{
			"name":"wheels-front.001",
			"primitives":[
				{
					"attributes":{
						"POSITION":4,
						"NORMAL":5,
						"TEXCOORD_0":6
					},
					"indices":3,
					"material":0
				}
			]
		},
		{
			"name":"train-electric-double-a",
			"primitives":[
				{
					"attributes":{
						"POSITION":7,
						"NORMAL":8,
						"TEXCOORD_0":9
					},
					"indices":10,
					"material":0
				}
			]
		}
	],
	"textures":[
		{
			"sampler":0,
			"source":0
		}
	],
	"images":[
		{
			"mimeType":"image/png",
			"name":"colormap",
			"uri":"Textures/colormap.png"
		}
	],
	"accessors":[
		{
			"bufferView":0,
			"componentType":5126,
			"count":532,
			"max":[
				0.49149996042251587,
				0,
				0.3805960416793823
			],
			"min":[
				-0.49149996042251587,
				-0.35949936509132385,
				-0.3805960416793823
			],
			"type":"VEC3"
		},
		{
			"bufferView":1,
			"componentType":5126,
			"count":532,
			"type":"VEC3"
		},
		{
			"bufferView":2,
			"componentType":5126,
			"count":532,
			"type":"VEC2"
		},
		{
			"bufferView":3,
			"componentType":5123,
			"count":948,
			"type":"SCALAR"
		},
		{
			"bufferView":4,
			"componentType":5126,
			"count":532,
			"max":[
				0.49149996042251587,
				0,
				0.3805960416793823
			],
			"min":[
				-0.49149996042251587,
				-0.35949936509132385,
				-0.3805960416793823
			],
			"type":"VEC3"
		},
		{
			"bufferView":5,
			"componentType":5126,
			"count":532,
			"type":"VEC3"
		},
		{
			"bufferView":6,
			"componentType":5126,
			"count":532,
			"type":"VEC2"
		},
		{
			"bufferView":7,
			"componentType":5126,
			"count":1461,
			"max":[
				0.6424752473831177,
				1.9240235090255737,
				1.25
			],
			"min":[
				-0.6424752473831177,
				0.13449935615062714,
				-1.2500001192092896
			],
			"type":"VEC3"
		},
		{
			"bufferView":8,
			"componentType":5126,
			"count":1461,
			"type":"VEC3"
		},
		{
			"bufferView":9,
			"componentType":5126,
			"count":1461,
			"type":"VEC2"
		},
		{
			"bufferView":10,
			"componentType":5123,
			"count":2439,
			"type":"SCALAR"
		}
	],
	"bufferViews":[
		{
			"buffer":0,
			"byteLength":6384,
			"byteOffset":0,
			"target":34962
		},
		{
			"buffer":0,
			"byteLength":6384,
			"byteOffset":6384,
			"target":34962
		},
		{
			"buffer":0,
			"byteLength":4256,
			"byteOffset":12768,
			"target":34962
		},
		{
			"buffer":0,
			"byteLength":1896,
			"byteOffset":17024,
			"target":34963
		},
		{
			"buffer":0,
			"byteLength":6384,
			"byteOffset":18920,
			"target":34962
		},
		{
			"buffer":0,
			"byteLength":6384,
			"byteOffset":25304,
			"target":34962
		},
		{
			"buffer":0,
			"byteLength":4256,
			"byteOffset":31688,
			"target":34962
		},
		{
			"buffer":0,
			"byteLength":17532,
			"byteOffset":35944,
			"target":34962
		},
		{
			"buffer":0,
			"byteLength":17532,
			"byteOffset":53476,
			"target":34962
		},
		{
			"buffer":0,
			"byteLength":11688,
			"byteOffset":71008,
			"target":34962
		},
		{
			"buffer":0,
			"byteLength":4878,
			"byteOffset":82696,
			"target":34963
		}
	],
	"samplers":[
		{
			"magFilter":9728,
			"minFilter":9984
		}
	],
	"buffers":[
		{
			"byteLength":87576,
			"uri":"train-electric-double-a-red.bin"
		}
	]
}
