{
	"asset":{
		"generator":"Khronos glTF Blender I/O v4.4.56",
		"version":"2.0"
	},
	"scene":0,
	"scenes":[
		{
			"name":"Scene",
			"nodes":[
				3
			]
		}
	],
	"nodes":[
		{
			"mesh":0,
			"name":"cargo",
			"translation":[
				0,
				0.4594993591308594,
				0.03750000149011612
			]
		},
		{
			"mesh":1,
			"name":"wheels-back",
			"translation":[
				0,
				0.35949936509132385,
				-0.6000000238418579
			]
		},
		{
			"mesh":2,
			"name":"wheels-front",
			"translation":[
				0,
				0.35949936509132385,
				0.6000000238418579
			]
		},
		{
			"children":[
				0,
				1,
				2
			],
			"mesh":3,
			"name":"train-carriage-container-red"
		}
	],
	"materials":[
		{
			"doubleSided":true,
			"name":"colormap",
			"pbrMetallicRoughness":{
				"baseColorTexture":{
					"index":0
				},
				"metallicFactor":0
			}
		}
	],
	"meshes":[
		{
			"name":"cargo",
			"primitives":[
				{
					"attributes":{
						"POSITION":0,
						"NORMAL":1,
						"TEXCOORD_0":2
					},
					"indices":3,
					"material":0
				}
			]
		},
		{
			"name":"wheels-back",
			"primitives":[
				{
					"attributes":{
						"POSITION":4,
						"NORMAL":5,
						"TEXCOORD_0":6
					},
					"indices":7,
					"material":0
				}
			]
		},
		{
			"name":"wheels-front",
			"primitives":[
				{
					"attributes":{
						"POSITION":8,
						"NORMAL":9,
						"TEXCOORD_0":10
					},
					"indices":7,
					"material":0
				}
			]
		},
		{
			"name":"train-carriage-container-red",
			"primitives":[
				{
					"attributes":{
						"POSITION":11,
						"NORMAL":12,
						"TEXCOORD_0":13
					},
					"indices":14,
					"material":0
				}
			]
		}
	],
	"textures":[
		{
			"sampler":0,
			"source":0
		}
	],
	"images":[
		{
			"mimeType":"image/png",
			"name":"colormap",
			"uri":"Textures/colormap.png"
		}
	],
	"accessors":[
		{
			"bufferView":0,
			"componentType":5126,
			"count":496,
			"max":[
				0.5,
				0.8999999761581421,
				1.287500023841858
			],
			"min":[
				-0.5,
				0,
				-1.287500023841858
			],
			"type":"VEC3"
		},
		{
			"bufferView":1,
			"componentType":5126,
			"count":496,
			"type":"VEC3"
		},
		{
			"bufferView":2,
			"componentType":5126,
			"count":496,
			"type":"VEC2"
		},
		{
			"bufferView":3,
			"componentType":5123,
			"count":852,
			"type":"SCALAR"
		},
		{
			"bufferView":4,
			"componentType":5126,
			"count":532,
			"max":[
				0.49149996042251587,
				0,
				0.3805958032608032
			],
			"min":[
				-0.49149996042251587,
				-0.35949936509132385,
				-0.3805958032608032
			],
			"type":"VEC3"
		},
		{
			"bufferView":5,
			"componentType":5126,
			"count":532,
			"type":"VEC3"
		},
		{
			"bufferView":6,
			"componentType":5126,
			"count":532,
			"type":"VEC2"
		},
		{
			"bufferView":7,
			"componentType":5123,
			"count":948,
			"type":"SCALAR"
		},
		{
			"bufferView":8,
			"componentType":5126,
			"count":532,
			"max":[
				0.49149996042251587,
				0,
				0.3805958032608032
			],
			"min":[
				-0.49149996042251587,
				-0.35949936509132385,
				-0.3805958032608032
			],
			"type":"VEC3"
		},
		{
			"bufferView":9,
			"componentType":5126,
			"count":532,
			"type":"VEC3"
		},
		{
			"bufferView":10,
			"componentType":5126,
			"count":532,
			"type":"VEC2"
		},
		{
			"bufferView":11,
			"componentType":5126,
			"count":592,
			"max":[
				0.5,
				0.4594993591308594,
				1.3500001430511475
			],
			"min":[
				-0.5,
				0.1594993621110916,
				-1.3500001430511475
			],
			"type":"VEC3"
		},
		{
			"bufferView":12,
			"componentType":5126,
			"count":592,
			"type":"VEC3"
		},
		{
			"bufferView":13,
			"componentType":5126,
			"count":592,
			"type":"VEC2"
		},
		{
			"bufferView":14,
			"componentType":5123,
			"count":978,
			"type":"SCALAR"
		}
	],
	"bufferViews":[
		{
			"buffer":0,
			"byteLength":5952,
			"byteOffset":0,
			"target":34962
		},
		{
			"buffer":0,
			"byteLength":5952,
			"byteOffset":5952,
			"target":34962
		},
		{
			"buffer":0,
			"byteLength":3968,
			"byteOffset":11904,
			"target":34962
		},
		{
			"buffer":0,
			"byteLength":1704,
			"byteOffset":15872,
			"target":34963
		},
		{
			"buffer":0,
			"byteLength":6384,
			"byteOffset":17576,
			"target":34962
		},
		{
			"buffer":0,
			"byteLength":6384,
			"byteOffset":23960,
			"target":34962
		},
		{
			"buffer":0,
			"byteLength":4256,
			"byteOffset":30344,
			"target":34962
		},
		{
			"buffer":0,
			"byteLength":1896,
			"byteOffset":34600,
			"target":34963
		},
		{
			"buffer":0,
			"byteLength":6384,
			"byteOffset":36496,
			"target":34962
		},
		{
			"buffer":0,
			"byteLength":6384,
			"byteOffset":42880,
			"target":34962
		},
		{
			"buffer":0,
			"byteLength":4256,
			"byteOffset":49264,
			"target":34962
		},
		{
			"buffer":0,
			"byteLength":7104,
			"byteOffset":53520,
			"target":34962
		},
		{
			"buffer":0,
			"byteLength":7104,
			"byteOffset":60624,
			"target":34962
		},
		{
			"buffer":0,
			"byteLength":4736,
			"byteOffset":67728,
			"target":34962
		},
		{
			"buffer":0,
			"byteLength":1956,
			"byteOffset":72464,
			"target":34963
		}
	],
	"samplers":[
		{
			"magFilter":9728,
			"minFilter":9984
		}
	],
	"buffers":[
		{
			"byteLength":74420,
			"uri":"train-carriage-container-light-red.bin"
		}
	]
}
